<?xml version="1.0" encoding="utf-8"?>
<!-- Generator: Adobe Illustrator 23.0.4, SVG Export Plug-In . SVG Version: 6.00 Build 0)  -->
<svg version="1.1" id="Layer_1" height="372" width="276" xmlns="http://www.w3.org/2000/svg" xmlns:xlink="http://www.w3.org/1999/xlink" x="0px" y="0px"
	 viewBox="0 0 276 372" style="enable-background:new 0 0 276 372;" xml:space="preserve">
<style type="text/css">
	.st0{fill:#D3D7DD;}
	.st1{fill:#FF6F61;}
	.st2{opacity:0.23;fill:#DBD6AD;enable-background:new    ;}
	.st3{opacity:0.35;fill:#C9C497;enable-background:new    ;}
	.st4{fill:#425672;}
	.st5{fill:#87423A;}
	.st6{opacity:0.4;fill:#EA9574;enable-background:new    ;}
	.st7{fill:#9ECDAF;}
	.st8{fill:#EA9574;}
	.st9{fill:#D44257;}
	.st10{fill:#913D36;}
	.st11{fill:#2B2B2B;}
	.st12{fill:#F9F9F7;}
	.st13{fill:#FDF3E5;}
	.st14{fill:#A5A497;}
	.st15{fill:#FFFFFF;}
	.st16{fill:#7BD3C6;}
	.st17{opacity:0.59;fill:#B2AC79;enable-background:new    ;}
	.st18{fill:#E85B5B;}
	.st19{fill:#313449;}
</style>
<g>
	<path class="st0" d="M261.3,334c-1.5-4.6-8.3-6.3-12-7.4c-7.1-2.1-14.4-3.2-21.7-4.2c-6.6-0.9-13.2-1.7-19.9-2.4
		c-34-3.8-68.5-6.8-102.7-6.5c-23.5,0.2-46.8,1.3-70.2,1.5c-9.7,0.1-16,3.2-18.2,4.5c-0.7,0.5-1.4,1.1-1.8,1.8
		c-3.8,6.8,13.8,11.7,39.4,9.5c27-2.3,24.8,0.2,28.2,2.5c0.7,0.5-0.1,1.3-1.7,2.3c-0.8,0.5-1.7,0.7-2.6,0.8
		c-10.5,0.3-18.9,0.6-22.3,0.6c-9.6,0.1-15.8,3.1-18.1,4.5c-0.9,0.5-1.6,1.3-2.1,2.1c-2.5,5.3,8.1,9.3,25.3,9.6
		c-0.1,0.1-0.1,0.3-0.1,0.4c-3.4,11.7,18.2,15.9,34.9,17.7c16.7,1.8,91.8-2.4,104.1-2.6c9.6-0.3,15.7-3.4,18-4.8
		c0.9-0.5,1.6-1.3,2-2.3c0.3-0.8,0.4-1.5,0.2-2.2c-0.9-3.2,1.2-6.6,4.6-6.8c0.9-0.1,1.7-0.1,2.3-0.3
		C243.5,350.2,265,345.6,261.3,334z"/>
	<path class="st1" d="M172.8,338.4c-1,0.1-4.6,2.1-5.4,2.6c-2.8,1.7-6.2,2.6-9,4.4c-1.5,0.9-3,1.9-3.8,3.4c-0.9,1.5-1.3,4.2,0.5,5
		c3.3,1.6,9.3-0.7,12.5-1.7c2.1-0.7,4.2-1.3,6.2-2.2c1-0.4,3.7-2.4,4.7-2.3c0,0,5.2,0.5,7.4-2c2.1-2.5-2.4-8.6-2.4-8.6L172.8,338.4z
		"/>
	<path class="st1" d="M154.7,352.6c4.2-4.7,11.3-4.2,16.8-6.4c3.9-1.6,7.3-4.8,9-8.6c-3.2,0.4-7.6,0.9-7.6,0.9
		c-1,0.1-4.6,2.1-5.4,2.6c-2.8,1.7-6.2,2.6-9,4.4c-1.5,0.9-3,1.9-3.8,3.4c-0.7,1.1-1.1,3-0.3,4.2C154.3,353,154.5,352.8,154.7,352.6
		z"/>
	<g>
		<path class="st1" d="M126.3,336.7c-1,0-3,1.6-3.9,2c-3,1.4-6.4,1.9-9.5,3.3c-1.5,0.7-3.2,1.6-4.2,2.9c-1,1.3-1.8,4-0.1,5
			c3.1,1.9,9.3,0.5,12.7-0.1c2.1-0.4,4.3-0.9,6.4-1.5c1-0.3,4-1.9,4.9-1.7c0,0,5.2,1.1,7.6-1.1c2.4-2.2-1.3-8.9-1.3-8.9L126.3,336.7
			z"/>
		<path class="st1" d="M115,346.1c1.7-0.3,3.5-0.4,5.2-0.7c0.1,0,0.2,0,0.2,0c0.1,0,0.1,0,0.2-0.1c0.5-0.1,0.9-0.2,1.3-0.3
			c0.8-0.2,1.6-0.4,2.3-0.7c2.7-0.9,5.1-2.1,7-4c1.1-1.1,2-2.4,2.8-3.8h-7.8c-1,0-3,1.6-3.9,2c-3,1.4-6.4,1.9-9.5,3.3
			c-1.5,0.7-3.2,1.6-4.2,2.9c-0.8,1-1.4,2.7-0.9,4C109.8,347.3,112.3,346.5,115,346.1z"/>
	</g>
	<path class="st2" d="M146.5,61.4l-9.6-26.1l-3.8-1.9c0,0-2.2-11.2-3.8-16.8c0,0-21.2-7.6-29.2-9.5l0.1,0.5
		c-0.1-0.3-0.2-0.5-0.3-0.4c-0.7,0.3-41.9,17.5-43.5,19.5c-1.5,1.9-0.1,17.7-0.1,18.8l-0.2,0.1l37.5,7.8v0.2l0,0l0,0l1.1,4.8l0,0
		l3.6,15.2l5.8,1l7.4-2.3c0.5,1.6,1.8,3.7,5.2,4c5.5,0.5,14.4-2.2,17.8-4.8c2.6-2,2.3-4.8,1.3-6.7L146.5,61.4z M130,70.5
		c-4.6,1.6-10.6,4-13.4,2.1c-0.1-0.1-0.1-0.1-0.2-0.1c-0.2-0.2-0.7-0.7-0.9-1.5v-0.1l16.8-5.2C132.9,67.2,133.1,69.5,130,70.5z"/>
	<path class="st3" d="M149.9,58.6l-9-26.3l-3.8-2c0,0-1.9-11.2-3.4-16.9c0,0-21.1-8-29-10.1l0.1,0.5c-0.1-0.3-0.1-0.5-0.3-0.4
		C103.7,3.6,62.1,20,60.6,21.9c-1.5,1.9-0.5,17.7-0.5,18.8l-0.2,0.1l37.3,8.5v0.2l0,0l0,0l1.1,4.8l0,0l3.3,15.2l5.8,1.1l7.4-2.1
		c0.5,1.6,1.7,3.7,5.1,4.1c5.5,0.7,14.5-1.9,17.9-4.4c2.6-1.9,2.4-4.8,1.4-6.7L149.9,58.6z M133.3,67.3c-4.7,1.5-10.7,3.8-13.4,1.9
		c-0.1-0.1-0.1-0.1-0.2-0.1c-0.2-0.2-0.7-0.8-0.9-1.5v-0.1l17-4.8C136.2,64.1,136.4,66.3,133.3,67.3z"/>
	<path class="st4" d="M175.9,276L175.9,276c0.1,0-0.1-0.4-0.5-1.2c-0.3-0.8-0.6-1.5-0.9-2.2c-2.5-6.6-7.6-22.7-7.2-42.9
		c0.3-10.6,3.7-17.4,2.3-22.5c-0.4-1.3-4.6-1.8-10.5-1.7c-1,9.8-2.5,19.5-2.6,29.4c-0.1,9.6,1.3,18.7,4.6,27.8
		c2.3,6.4,4.3,12.8,6.1,19.3c0,0,0,0.1,0.1,0.1c2.1,4.5,3.8,9.1,5.2,13.8c3.2,7,4.6,14.4,5.9,22c0.8,4.6,1.5,9.2,1.9,13.8
		c0.1,2.4,0.2,4.8-0.1,7.2c0,0.1,0.1,0.3,0.1,0.5c2.5,0,4.9-0.3,6.2-1.2C186.3,338.2,182.6,295.4,175.9,276z"/>
	<path class="st5" d="M175.9,276L175.9,276c0.1,0-0.1-0.4-0.5-1.2c-0.3-0.8-0.6-1.5-0.9-2.2c-2.5-6.6-7.6-22.7-7.2-42.9
		c0.3-10.6,3.7-17.4,2.3-22.5c-1.5-5-58.6,2.4-58.6,2.4s0.4,37,8.1,56.6c0,0-0.2,5.8,2.9,9.1c0.7,0.7,1.2,1.7,1.4,2.6
		c3,12.5,1.5,60,1.5,60c7.8,4.9,17.1-0.7,17.1-0.7c3.4-19.7,4.6-53.1-1.4-68.8c-2.3-7-2.2-29.8-2.2-29.8s4.1,17.8,9.5,29.4
		c0.9,4.8,2.4,6.5,5,8.1l0,0c0,0,16.8,39.9,16.8,62.2c0,0,12.5,2.6,16.3,0C186.4,338.2,182.6,295.4,175.9,276z"/>
	<path class="st6" d="M101.9,116.9c0,0-15.4-12.7-11.7-29.7c3.6-16.9,12.5-27.6,17.8-32.4c0,0,6.2-1.9,8.9-3.7
		c2.8-1.9,5.8-1.9,5.8-1.9s1.7-3.6-5.5-2.6c-7.2,1-7.9-2.3-7.9-2.3l-8.7-1.7c0,0-3,2.2-1.1,6.8c0,0-28.6,23.2-23.8,55.3
		c0,0-4.6,5.1,0.9,6.6c0,0,9.7,12.3,12.9,14L101.9,116.9z"/>
	<g>
		<path class="st7" d="M179.3,43.8c0,0,5.4-3.4,2.8-5.4c0,0-1.3-0.9-2.8,1.4c0,0-1.3-4.4-3.2-0.1c0,0-0.7,2.1,1.8,4.6L179.3,43.8z"
			/>
		<path class="st5" d="M181.1,45.2c0,0,1-1.7-2.4-1.8c-3.4-0.1-4.3,1.3-2.5,2.7C178.1,47.6,181.1,45.2,181.1,45.2z"/>
		<path class="st7" d="M179.5,43.4c0,0,5.1-4.8,1.8-6.5c0,0-1.7-0.7-2.8,2.1c0,0-2.4-4.4-3.5,0.6c0,0-0.3,2.5,3,4.6L179.5,43.4z"/>
	</g>
	<path class="st8" d="M135.3,112.2c0,0-0.7,4,0,7.7h-3.6c0,0-8.1,8-3.6,11.9c4.5,3.8,19,6.6,29.4-4.8l0.7-5.2c0,0-5.9,1.3-5.8-1.7
		c0.2-3,2.1-6.6,2.1-6.6L135.3,112.2z"/>
	<path class="st1" d="M131.9,121.2c0.3-0.6-0.1-1.3-0.7-1.5c-2.1-0.7-6.6-2.1-11.3-2.1c-5.2,0-13.6-5.8-17-8.2
		c-0.7-0.5-1.6-0.2-1.8,0.6c-1,3.2-4.2,10.4-14.8,17.9c-0.6,0.4-0.7,1.3-0.1,1.8c2,1.9,7.6,6,22.6,10.9c0.1,0,0.1,0,0.1,0.1
		c0.4,0.1,2.5,0.7,1.9,4.3c-0.7,3.9-7.9,33.9-3.2,63.6c0.1,0.3,0.3,0.7,0.6,0.9c3.8,2.1,29.4,14.6,64.7-2.8c0.5-0.3,0.8-0.9,0.6-1.4
		c-1.3-4-6.2-20.5-8.3-34.2c-0.2-1.5,2-1.9,2.3-0.4c0,0.1,0.1,0.2,0.1,0.3c0.1,0.6,0.7,1,1.3,0.9c2.8-0.3,10.9-1.6,18.3-7.7
		c0.3-0.3,0.5-0.7,0.4-1.2c-1.1-4.4-7.4-27.6-16.8-37.2c0,0-4-4.4-12.1-4c-0.5,0-0.9,0.3-1,0.7c-1.3,3-7.4,14.9-21.1,11.1
		C136.4,133.5,127.8,131.2,131.9,121.2z"/>
	<path class="st9" d="M130.9,125.8c0.1-1.3,0.4-2.8,1.1-4.6c0.3-0.6-0.1-1.3-0.7-1.5c-2.1-0.7-6.6-2.1-11.3-2.1
		c-5.2,0-13.6-5.8-17-8.2c-0.7-0.5-1.6-0.2-1.8,0.6c-0.3,0.9-0.8,2.2-1.6,3.7C107.8,121.7,119.6,123.8,130.9,125.8z"/>
	<path class="st1" d="M145,213c-8.3-15.6-14.2-32.5-15-50.3c-0.4-7.8-1.1-15.6-1-23.3c0.1-6.6,0.6-13.3,2.9-19.5
		c-0.1-0.1-0.2-0.1-0.3-0.2c-1.1-0.4-2.9-1-5-1.5c-6.8,7.4-12.1,16.1-15.3,25.6c0,0.3-0.1,0.6-0.1,0.9c-0.7,3.9-7.9,33.9-3.2,63.6
		c0.1,0.3,0.3,0.7,0.6,0.9c2.8,1.5,16.8,8.4,37.6,5.7C145.7,214.3,145.3,213.7,145,213z"/>
	<path class="st9" d="M187.4,162.8c-1.1-4.4-7.4-27.6-16.8-37.2c0,0-4-4.4-12.1-4c-0.5,0-0.9,0.3-1,0.7c-0.1,0.1-0.1,0.3-0.2,0.5
		c8.1,1.3,13,10.3,15.5,18.1c2.9,9.1,5,18.5,6.2,28c2.6-1.1,5.4-2.7,8-5C187.4,163.7,187.5,163.2,187.4,162.8z"/>
	<path class="st10" d="M156.6,128.6c1.3-2,3-4.6,2.8-7c-0.6,0-1.4-0.1-1.9,0.3c-0.2,0.2-0.3,0.4-0.4,0.7c-1.7,3.5-3.8,6.7-7,8.9
		c-4,2.8-8.9,3.2-13.5,2c0,0-8.4-2.3-4.4-12.3c0.3-0.9-0.7-2.3-1.6-1.6c-0.3,0.3-0.5,0.7-0.6,1.1c-0.5,1.9-0.9,3.7-0.9,5.6
		c0,5.5,3.6,9.3,8.9,10.2C145.2,137.7,152.6,134.9,156.6,128.6z"/>
	<path class="st1" d="M111.5,141.4c0,0,0.5-3.2,1.2-6c0.4-1.5-0.9-2.8-2.4-2.5c-4.4,0.9-12.5,1.5-22.4-1.8
		C87.9,131.1,105.9,140.4,111.5,141.4z"/>
	<path class="st9" d="M167.9,171.4c0,0-2.8-7.5-4.1-14c-0.2-0.8-1.3-0.7-1.5,0.1c-0.9,6.3-1.3,21.4,8.8,49.9c0,0,1.8,0.5,2.3-2.2
		c0.5-2.6-6.7-24.9-8.3-34.3C165.1,170.7,165.7,166.6,167.9,171.4z"/>
	<path class="st6" d="M83.5,89.4c-3.7-16.9-0.1-30.3,2.7-36.8c0,0,4.8-4.2,6.6-7.1c1.7-2.8,4.4-4.1,4.4-4.1s0-4-6.1-0.1
		c-1.9,1.2-3.4,1.8-4.6,2c-0.3-0.9,0.9-1.9,0.9-1.9l-10.7-2.6c-1.5,2.3-2.4,5.8-2.4,5.8s-1.9,3.2,1.8,6.6c0,0-16.4,33,1.3,60.2
		c0,0-2.1,6.6,3.6,5.6c0,0,7.6,4.7,11.1,5.1l8.7-11.5C100.9,110.6,87.2,106.2,83.5,89.4z"/>
	<path class="st8" d="M157.3,72.6c0,0-21.3,1.7-28.5,23.8c-0.6,1.8-0.8,3.6-0.6,5.5c0.3,3,1.4,7.2,5,8.7
		c5.8,2.4,32.9-29.4,32.9-29.4L157.3,72.6z"/>
	<path class="st8" d="M162,74.8c0,0-19.7,3-23.1,9.5c0,0-1.5,1.9,1.1,4.7c0,0-13.1,7.4-8.5,20.5c0,0,3.6,6,25.2,4.6l15.8-1.3
		l5.5-11.6l1.9-25.3L162,74.8z"/>
	<path class="st11" d="M157.8,65.5c0.8-0.3,1.7-0.1,2.3,0.5c0.8,0.9,6,1,13.7,3.1c12.2,3.4,15.3,7.7,16,20.2v0.1
		c-0.1,0.5-0.7,5.5-2.6,8.2c-0.1,0.1-0.1,0.3-0.1,0.5c0.3,0.7,1.1,2.8,1.4,4.4c0.1,0.5-0.5,0.8-0.9,0.5l0,0c-0.4-0.3-0.9,0-0.9,0.5
		c0.1,0.9,0.1,2.1-0.4,2.8c-0.2,0.3-0.6,0.4-0.9,0.1c-0.3-0.3-0.8-0.9-1.3-1.1c-0.2-0.1-0.5-0.1-0.7,0.1c-1.3,1.6-2.8,6.4-16.6,10.9
		c-0.3,0.1-0.5,0.1-0.9,0.2c-1.2,0.1-10.6,2.3-11-2.3c0,0-0.9-2.3,6.8-3.2c0.1,0,0.1,0,0.1,0c0.7,0.1,7.2,0.7,9.2-1.3
		c2.1-2.1,3-6.2-2.5-6c-5.5,0.1-6.9-0.5-5.2-3.6c1.7-3.1,7.4-2.7,9-8.7c1.6-6-0.4-9.5-5.8-12.8c-5.4-3.2-9.7-3.5-10.3-9
		C156,66.9,156.9,65.8,157.8,65.5z"/>
	<path class="st12" d="M149.6,79.3c0.2-0.4,0.7-0.7,1.1-0.7c1.2-0.2,3.8-0.3,4.7,2.8c1.2,4.1,0.6,4.3-0.6,4
		C153.7,85,148,82,149.6,79.3z"/>
	<path class="st8" d="M170.1,171.5c0,0,2.2,5.3-3.6,7.2c-5.8,1.8-20.3-8.9-20.3-8.9s-1.7-7.6-1.1-11.2c0.6-3.6-13.8-10.2-15-10.5
		c-1.1-0.3-2.2,1.7,1.6,4.1c3.8,2.4,3.6,3.4,3.6,3.4s-3.8-0.6-6.3,0.7c-1.7,1-3.8,1.7-4.8,1.9c-0.5,0.1-0.8,0.7-0.6,1.2
		c0.3,0.8,1.6,1.7,5.6,1.1c0,0,4-1.6,6-1c0,0-2.4,0.3-5.8,3.9l-2.8,2.1c-0.3,0.2-0.3,0.7,0.1,0.9c0.9,0.4,2.6,0.9,4.9-0.3l3.8-2
		c0,0-3,1.7-3,3.6c0,0-0.9,1.6-1.7,2.4c-0.3,0.3-0.2,0.8,0.2,1c0.7,0.3,1.8,0.5,3.3-0.9c1-0.9,1.7-1.5,2.3-1.9
		c0.3-0.2,0.7,0.1,0.5,0.5c-0.8,1.6-2,4.8,0.3,6.6c0,0,2.5,1.3,6.2,1c0,0,1.7,1.3,2.4,2.4s17.5,16.4,33.7,11.5c0,0,3.7,1.4,4.5-3.7
		c0,0,4.2-8.5,0.5-20.8L170.1,171.5z"/>
	<path class="st5" d="M140.8,268.4c-1.7-5.2-2.1-18.8-2.2-25.8c-0.1-2.5-0.2-5-0.3-7.4c0-0.7-0.1-1.3-0.1-1.9c0-1.3-1.6-1.9-2.5-0.9
		c-0.5,0.5-0.9,1-1.2,1.5c-1.8,2.6-2.8,5-3.4,8.1c-0.9,4-0.9,7.9-0.5,11.8c1.3,5.2,2.9,10.3,4.1,15.4c2.6,11.4,5,23.3,5.6,35.1
		c0.5,11.2-0.1,24.1-3.4,34.9c3.1-0.8,5.3-2.1,5.3-2.1C145.6,317.5,146.9,284.1,140.8,268.4z"/>
	<g>
		<path class="st13" d="M80.7,25.8c0.5,0.4,17.9,6,17.9,6l29.1-10.4L111,15L80.7,25.8z"/>
		<path class="st1" d="M63.2,34.6c0,0,24.5-7.2,47.8-16.6c0,0-0.2-17.8-0.9-17.7c-0.7,0.2-43.4,13.6-45,15.4
			C63.3,17.6,63.2,34.6,63.2,34.6z"/>
		<polygon class="st7" points="63,34.6 86.2,26.9 98.5,31.7 99.6,45.7 		"/>
		<polygon class="st7" points="98.5,31.7 99.6,45.9 140.7,29.5 138.6,13.7 		"/>
		<path class="st1" d="M110.2,0.3l0.7,17.8c0,0,14.4,5.2,29.7,11.3c0,0-1.1-11.3-2.3-17.1C138.4,12.4,118,3,110.2,0.3z"/>
		<polygon class="st1" points="99.6,45.9 102.5,66.2 145.8,56 140.7,29.5 		"/>
		<path class="st13" d="M102.7,50c0.5-0.1,0.9-0.3,1.3-0.5c0.3-0.1,0.8-0.3,0.9-0.4c2.1-0.9,4-1.9,6-2.8c4.5-2.3,8.8-4.6,13.6-6.1
			c4.6-1.5,9.3-2.5,13.8-4c1.1-0.4,2.1-0.7,3.2-1.1l-1.1-5.4L99.6,45.9l0.7,4.9C101.2,50.5,101.9,50.3,102.7,50z"/>
		<polygon class="st7" points="142.4,32.5 103.7,47.9 106.9,66.2 148.7,57.6 		"/>
		<polygon class="st1" points="140.7,29.5 144.3,31.7 151.5,58.6 145.8,56 		"/>
		<polygon class="st1" points="102.5,66.2 145.8,56 151.5,58.6 108.3,67.7 		"/>
		<path class="st14" d="M117.1,64.3c-0.8,0.1-1.4,0.8-1.3,1.6c0.3,1.6,1.3,4,4.8,4.7c5.4,1.1,14.6-0.9,18.2-3.1
			c3-1.9,2.6-5.2,1.6-7.2c-0.3-0.5-0.9-0.9-1.5-0.7l-0.9,0.3c-0.7,0.2-1.1,0.9-0.9,1.7c0.4,1.5,0.5,3.8-2.7,4.6
			c-4.8,1.2-10.9,3-13.5,0.9c-0.1-0.1-0.1-0.1-0.2-0.2c-0.2-0.2-0.7-0.8-0.8-1.6c-0.1-0.7-0.7-1.1-1.4-1.1L117.1,64.3z"/>
		<g>
			<path class="st7" d="M171.8,30.4c0,0,0.9-8.6,5.2-6.8c0,0,2,1.1,0.1,4.3c0,0,6.4-1.1,2.2,3.8c0,0-2.3,2.3-7,0.6L171.8,30.4z"/>
			<path class="st5" d="M168.9,29c0,0,1.5-2.2,3.8,1.8c2.3,4,1.2,6.1-1.9,4.7C167.8,34.2,168.9,29,168.9,29z"/>
			<path class="st7" d="M172.2,29.9c0,0,2.8-9.2,7.2-6.2c0,0,1.9,1.6-0.9,4.7c0,0,7.2,0.3,1.5,4.7c0,0-2.9,1.9-7.8-0.9V29.9
				L172.2,29.9z"/>
		</g>
		<path class="st15" d="M73.3,13.4l24.3-8.1c1-0.3,2.1,0.4,2.1,1.5v13.5c0,0.7-0.5,1.3-1.1,1.5l-25,8.4c-1.1,0.3-2.1-0.5-2.1-1.6
			l0.7-13.8C72.2,14.1,72.7,13.6,73.3,13.4z"/>
		<g>
			<path class="st16" d="M163.8,31.1L163.8,31.1c-0.3,0-0.4-0.2-0.4-0.4c0-0.1,0-0.1,0-0.2c0-0.5-0.1-1.1-0.2-1.7
				c-0.1-0.2,0.1-0.5,0.3-0.5c0.2-0.1,0.5,0.1,0.5,0.3c0.2,0.6,0.3,1.3,0.3,1.9c0,0.1,0,0.1,0,0.3C164.2,31,164,31.1,163.8,31.1z
				 M150.6,28.1c-0.2,0-0.4-0.1-0.4-0.3s0.1-0.4,0.3-0.5c0.1,0,0.3-0.1,0.4-0.1c0.5-0.1,1.1-0.3,1.5-0.4c0.2-0.1,0.5,0.1,0.5,0.3
				s-0.1,0.5-0.3,0.5c-0.5,0.1-1,0.3-1.5,0.4C150.9,28,150.8,28.1,150.6,28.1L150.6,28.1z M148.6,27.8c-0.1,0-0.1,0-0.2-0.1
				c-0.2-0.1-0.3-0.2-0.5-0.3c-0.4-0.4-0.7-0.9-0.7-1.6c0-0.2,0.1-0.4,0.3-0.5c0.2,0,0.4,0.1,0.5,0.3c0,0.3,0.1,0.8,0.5,1.1
				c0.1,0.1,0.2,0.2,0.3,0.3c0.2,0.1,0.3,0.3,0.1,0.5C148.9,27.7,148.7,27.8,148.6,27.8z M162.8,27.3c-0.1,0-0.3-0.1-0.3-0.2
				c-0.3-0.5-0.7-1.1-1.1-1.6c-0.1-0.2-0.1-0.4,0.1-0.6c0.2-0.1,0.4-0.1,0.6,0.1c0.5,0.5,0.9,1.1,1.2,1.7c0.1,0.2,0.1,0.5-0.1,0.5
				C163,27.3,162.9,27.3,162.8,27.3z M126.2,27.3c-0.1,0-0.2,0-0.3-0.1c-0.2-0.1-0.2-0.4-0.1-0.6c0.4-0.5,0.9-1.1,1.3-1.5
				c0.1-0.1,0.4-0.2,0.6,0c0.1,0.1,0.2,0.4,0,0.6c-0.5,0.5-0.9,1-1.3,1.5C126.4,27.2,126.3,27.3,126.2,27.3z M154.4,27
				c-0.1,0-0.3-0.1-0.4-0.3c-0.1-0.2,0-0.5,0.2-0.5c0.7-0.3,1.3-0.5,1.7-0.9c0.2-0.1,0.5-0.1,0.5,0.1c0.1,0.2,0.1,0.5-0.1,0.5
				C155.8,26.3,155.1,26.6,154.4,27C154.5,27,154.5,27,154.4,27z M157.8,24.8c-0.1,0-0.2-0.1-0.3-0.1c-0.1-0.1-0.2-0.4,0-0.6
				c0.3-0.4,0.7-0.8,0.9-1.2c-0.2-0.1-0.2-0.3-0.1-0.5c0.1-0.2,0.4-0.3,0.5-0.1c0.1,0.1,0.1,0.1,0.2,0.1h0.1c0.1,0,0.1,0.1,0.1,0.1
				c0.5,0.3,0.9,0.6,1.3,1c0.2,0.1,0.2,0.4,0.1,0.6c-0.1,0.2-0.4,0.2-0.6,0.1c-0.3-0.3-0.6-0.5-0.9-0.7c-0.3,0.5-0.6,0.9-1,1.3
				C158,24.8,157.9,24.8,157.8,24.8z M128.9,24.4c-0.1,0-0.2-0.1-0.3-0.1c-0.1-0.1-0.1-0.4,0-0.6c0.5-0.5,1-0.9,1.5-1.3
				c0.2-0.1,0.4-0.1,0.6,0.1c0.1,0.2,0.1,0.4-0.1,0.6c-0.5,0.4-1,0.9-1.5,1.3C129.1,24.3,129,24.4,128.9,24.4z M148.1,24.2
				c-0.1,0-0.1,0-0.2-0.1c-0.2-0.1-0.3-0.3-0.2-0.5c0.3-0.7,0.8-1.3,1.3-1.7c0.2-0.1,0.4-0.1,0.6,0c0.1,0.2,0.1,0.4,0,0.6
				c-0.5,0.4-0.8,0.9-1.1,1.5C148.3,24.2,148.2,24.2,148.1,24.2z M156.9,22.1c-0.1,0-0.1,0-0.1,0c-0.6-0.3-1.3-0.5-1.9-0.6
				c-0.2-0.1-0.3-0.3-0.3-0.5c0.1-0.2,0.3-0.3,0.5-0.3c0.7,0.1,1.3,0.3,2,0.7c0.2,0.1,0.3,0.3,0.2,0.5C157.1,22,157,22.1,156.9,22.1
				z M132.1,21.9c-0.1,0-0.3-0.1-0.3-0.2c-0.1-0.2-0.1-0.5,0.1-0.5c0.5-0.4,1.1-0.7,1.7-1.1c0.2-0.1,0.5-0.1,0.5,0.1
				c0.1,0.2,0.1,0.5-0.1,0.5c-0.6,0.3-1.1,0.7-1.7,1.1C132.2,21.9,132.2,21.9,132.1,21.9z M151,21.6c-0.2,0-0.3-0.1-0.4-0.3
				c-0.1-0.2,0-0.5,0.3-0.5c0.7-0.3,1.3-0.4,2.1-0.4c0.2,0,0.4,0.2,0.4,0.4s-0.2,0.4-0.4,0.4c-0.7,0-1.3,0.1-1.9,0.3
				C151,21.6,151,21.6,151,21.6z M159.4,21.3c-0.2,0-0.4-0.2-0.4-0.4c0-0.4-0.1-0.7-0.3-1.1c-0.1-0.2-0.2-0.4-0.3-0.5
				c-0.1-0.2-0.1-0.4,0.1-0.6c0.2-0.1,0.4-0.1,0.6,0.1c0.2,0.2,0.3,0.5,0.5,0.7c0.2,0.4,0.3,0.9,0.3,1.4
				C159.8,21.1,159.6,21.3,159.4,21.3L159.4,21.3z M135.5,19.9c-0.1,0-0.3-0.1-0.3-0.2c-0.1-0.2,0-0.5,0.2-0.5
				c0.6-0.3,1.3-0.6,1.9-0.8c0.2-0.1,0.5,0,0.5,0.2c0.1,0.2,0,0.5-0.2,0.5c-0.6,0.3-1.2,0.5-1.8,0.8
				C135.7,19.8,135.6,19.9,135.5,19.9z M139.3,18.3c-0.2,0-0.3-0.1-0.4-0.3c-0.1-0.2,0.1-0.5,0.3-0.5c0.7-0.2,1.3-0.4,2-0.5
				c0.2-0.1,0.5,0.1,0.5,0.3c0.1,0.2-0.1,0.5-0.3,0.5c-0.7,0.1-1.3,0.3-1.9,0.5C139.4,18.3,139.3,18.3,139.3,18.3z M157.1,18.2
				c-0.1,0-0.1,0-0.2-0.1c-0.5-0.2-1.1-0.4-1.9-0.6c-0.2-0.1-0.3-0.3-0.3-0.5c0.1-0.2,0.3-0.3,0.5-0.3c0.8,0.2,1.5,0.4,2,0.7
				c0.2,0.1,0.3,0.3,0.2,0.5C157.4,18.1,157.3,18.2,157.1,18.2z M143.2,17.3c-0.2,0-0.3-0.1-0.4-0.3c-0.1-0.2,0.1-0.4,0.3-0.5
				c0.7-0.1,1.3-0.2,2-0.3c0.2,0,0.4,0.1,0.5,0.3s-0.1,0.4-0.3,0.5C144.6,17.1,143.9,17.2,143.2,17.3
				C143.2,17.3,143.2,17.3,143.2,17.3z M153.2,17.2C153.2,17.2,153.2,17.2,153.2,17.2c-0.7-0.1-1.4-0.2-2.1-0.3
				c-0.2,0-0.4-0.2-0.4-0.5c0-0.2,0.2-0.4,0.5-0.4c0.7,0.1,1.3,0.1,2.1,0.3c0.2,0,0.4,0.3,0.3,0.5C153.6,17.1,153.4,17.2,153.2,17.2
				z M147.2,16.9c-0.2,0-0.4-0.2-0.4-0.4c0-0.2,0.1-0.4,0.4-0.4c0.5,0,1-0.1,1.5-0.1c0.2,0,0.4,0,0.6,0c0.2,0,0.4,0.2,0.4,0.4
				s-0.2,0.4-0.4,0.4l0,0c-0.2,0-0.4,0-0.6,0C148.2,16.9,147.7,16.9,147.2,16.9L147.2,16.9z"/>
		</g>
		<path class="st17" d="M64.5,11.2c-2,0.5-5.2,2.1-5.7,6.4c0,0.3,0.3,0.3,0.4,0.1c0.7-1.6,2.3-4.3,5.4-6.1
			C64.9,11.5,64.8,11.1,64.5,11.2z"/>
		<path class="st17" d="M61.5,7.1c-2,0.5-5.2,2.1-5.7,6.4c0,0.3,0.3,0.3,0.4,0.1c0.7-1.6,2.3-4.3,5.4-6.1C61.9,7.3,61.8,7,61.5,7.1z
			"/>
		<path class="st5" d="M101,21.7v-1.9c0-0.1,0-0.1,0.1-0.1l2.9-1.2c0.1,0,0.1,0,0.1,0.1v2c0,0.1,0,0.1-0.1,0.1l-2.9,1.1
			C101.1,21.8,101,21.7,101,21.7z"/>
		<path class="st5" d="M67.3,33.3v-1.9c0-0.1,0-0.1,0.1-0.1l2.9-1.2c0.1,0,0.1,0,0.1,0.1v2c0,0.1,0,0.1-0.1,0.1l-2.9,1.1
			C67.4,33.4,67.3,33.4,67.3,33.3z"/>
		<polygon class="st14" points="141.2,57.1 138.2,55.4 134,56.7 136.5,58.2 		"/>
		<polygon class="st14" points="118.8,62.4 115.9,60.7 111.7,61.9 114.1,63.5 		"/>
		<polygon class="st18" points="81.6,11.8 87,9.9 87,14.7 91.4,13.4 91.4,18.4 87.5,19.6 87.6,23.6 83.1,25.4 82.7,21 78.4,22.5 
			78.4,18.1 82,16.6 		"/>
	</g>
	<path class="st8" d="M100.9,110.6c0,0-12.2-4.8-11.9-22.1c0.4-17.3,7.1-29.5,11.4-35.2c0,0,5.7-2.9,8.1-5.3
		c2.4-2.4,5.3-2.9,5.3-2.9s1-3.9-5.9-1.6c-6.9,2.4-8.3,2.3-8.3,2.3l-10.3-3.2c0,0-1,2.8,1.7,7c0,0-23.8,28.2-13,58.8
		c0,0-3.5,5.8,2.2,6.4c0,0,8.3,7.9,11.7,9c0,0,3.3-3.7,5.5-6.6C99.8,113.9,100.9,110.6,100.9,110.6z"/>
	<path class="st8" d="M146.5,76.2c0,0-20.6,0.2-12.5,9.8"/>
	<circle class="st19" cx="152.8" cy="79.6" r="1.2"/>
	<g>
		<path class="st1" d="M129.2,96.2c0,0,9.3,1.2,9.4-2.1c0.1-3.3-6-5.5-6-5.5S130,92.1,129.2,96.2z"/>
	</g>
</g>
</svg>
